<svg id="visual" viewBox="0 0 960 540" width="960" height="540" xmlns="http://www.w3.org/2000/svg" xmlns:xlink="http://www.w3.org/1999/xlink" version="1.1"><g stroke-width="1" stroke-linejoin="bevel"><path d="M458 269L434 241L417 276Z" fill="#51738d" stroke="#51738d"></path><path d="M434 241L385 251L417 276Z" fill="#51738d" stroke="#51738d"></path><path d="M458 269L488 245L434 241Z" fill="#6086a4" stroke="#6086a4"></path><path d="M385 251L391 300L417 276Z" fill="#6f9abc" stroke="#6f9abc"></path><path d="M417 276L448 336L458 269Z" fill="#6086a4" stroke="#6086a4"></path><path d="M391 300L448 336L417 276Z" fill="#597c99" stroke="#597c99"></path><path d="M458 269L508 316L488 245Z" fill="#6790b0" stroke="#6790b0"></path><path d="M488 245L450 179L434 241Z" fill="#2f4556" stroke="#2f4556"></path><path d="M434 241L361 206L385 251Z" fill="#3c566c" stroke="#3c566c"></path><path d="M482 341L508 316L458 269Z" fill="#6f9abc" stroke="#6f9abc"></path><path d="M448 336L482 341L458 269Z" fill="#354d61" stroke="#354d61"></path><path d="M406 157L361 206L434 241Z" fill="#6f9abc" stroke="#6f9abc"></path><path d="M385 251L329 245L391 300Z" fill="#597c99" stroke="#597c99"></path><path d="M533 218L488 183L488 245Z" fill="#4a6982" stroke="#4a6982"></path><path d="M488 245L488 183L450 179Z" fill="#2f4556" stroke="#2f4556"></path><path d="M362 161L352 205L361 206Z" fill="#6790b0" stroke="#6790b0"></path><path d="M361 206L329 245L385 251Z" fill="#6790b0" stroke="#6790b0"></path><path d="M549 253L533 218L488 245Z" fill="#597c99" stroke="#597c99"></path><path d="M352 205L329 245L361 206Z" fill="#6086a4" stroke="#6086a4"></path><path d="M488 183L456 156L450 179Z" fill="#6f9abc" stroke="#6f9abc"></path><path d="M450 179L406 157L434 241Z" fill="#3c566c" stroke="#3c566c"></path><path d="M525 170L456 156L488 183Z" fill="#6790b0" stroke="#6790b0"></path><path d="M456 156L406 157L450 179Z" fill="#3c566c" stroke="#3c566c"></path><path d="M508 316L549 253L488 245Z" fill="#6086a4" stroke="#6086a4"></path><path d="M352 205L321 242L329 245Z" fill="#6086a4" stroke="#6086a4"></path><path d="M315 349L367 377L391 300Z" fill="#283c4c" stroke="#283c4c"></path><path d="M448 336L475 375L482 341Z" fill="#6f9abc" stroke="#6f9abc"></path><path d="M482 341L539 386L508 316Z" fill="#2f4556" stroke="#2f4556"></path><path d="M508 316L563 287L549 253Z" fill="#436077" stroke="#436077"></path><path d="M460 384L475 375L448 336Z" fill="#436077" stroke="#436077"></path><path d="M445 384L448 336L415 398Z" fill="#51738d" stroke="#51738d"></path><path d="M367 377L448 336L391 300Z" fill="#597c99" stroke="#597c99"></path><path d="M445 384L460 384L448 336Z" fill="#354d61" stroke="#354d61"></path><path d="M406 157L362 161L361 206Z" fill="#6086a4" stroke="#6086a4"></path><path d="M352 205L299 216L321 242Z" fill="#6790b0" stroke="#6790b0"></path><path d="M578 288L563 287L574 368Z" fill="#436077" stroke="#436077"></path><path d="M562 198L525 170L533 218Z" fill="#6790b0" stroke="#6790b0"></path><path d="M533 218L525 170L488 183Z" fill="#6f9abc" stroke="#6f9abc"></path><path d="M562 198L533 218L549 253Z" fill="#436077" stroke="#436077"></path><path d="M315 349L391 300L309 342Z" fill="#354d61" stroke="#354d61"></path><path d="M367 377L415 398L448 336Z" fill="#436077" stroke="#436077"></path><path d="M451 465L492 454L460 384Z" fill="#283c4c" stroke="#283c4c"></path><path d="M595 252L562 198L549 253Z" fill="#6086a4" stroke="#6086a4"></path><path d="M299 216L292 260L321 242Z" fill="#6790b0" stroke="#6790b0"></path><path d="M321 242L292 260L329 245Z" fill="#354d61" stroke="#354d61"></path><path d="M574 368L563 287L508 316Z" fill="#4a6982" stroke="#4a6982"></path><path d="M563 287L578 288L549 253Z" fill="#2f4556" stroke="#2f4556"></path><path d="M305 163L299 216L352 205Z" fill="#2f4556" stroke="#2f4556"></path><path d="M309 342L391 300L329 245Z" fill="#2f4556" stroke="#2f4556"></path><path d="M292 260L309 342L329 245Z" fill="#3c566c" stroke="#3c566c"></path><path d="M525 170L459 109L456 156Z" fill="#3c566c" stroke="#3c566c"></path><path d="M456 156L459 109L406 157Z" fill="#6086a4" stroke="#6086a4"></path><path d="M385 103L331 138L362 161Z" fill="#3c566c" stroke="#3c566c"></path><path d="M452 100L459 109L488 69Z" fill="#6f9abc" stroke="#6f9abc"></path><path d="M578 288L595 252L549 253Z" fill="#597c99" stroke="#597c99"></path><path d="M512 424L539 386L475 375Z" fill="#354d61" stroke="#354d61"></path><path d="M475 375L539 386L482 341Z" fill="#4a6982" stroke="#4a6982"></path><path d="M626 250L620 223L595 252Z" fill="#4a6982" stroke="#4a6982"></path><path d="M512 424L475 375L460 384Z" fill="#6f9abc" stroke="#6f9abc"></path><path d="M385 103L362 161L406 157Z" fill="#6790b0" stroke="#6790b0"></path><path d="M362 161L305 163L352 205Z" fill="#4a6982" stroke="#4a6982"></path><path d="M553 142L459 109L525 170Z" fill="#4a6982" stroke="#4a6982"></path><path d="M459 109L452 100L406 157Z" fill="#436077" stroke="#436077"></path><path d="M311 151L305 163L362 161Z" fill="#436077" stroke="#436077"></path><path d="M248 292L259 293L292 260Z" fill="#4a6982" stroke="#4a6982"></path><path d="M331 138L311 151L362 161Z" fill="#4a6982" stroke="#4a6982"></path><path d="M452 100L385 103L406 157Z" fill="#4a6982" stroke="#4a6982"></path><path d="M595 175L553 142L562 198Z" fill="#3c566c" stroke="#3c566c"></path><path d="M562 198L553 142L525 170Z" fill="#597c99" stroke="#597c99"></path><path d="M367 377L389 426L415 398Z" fill="#597c99" stroke="#597c99"></path><path d="M492 454L512 424L460 384Z" fill="#4a6982" stroke="#4a6982"></path><path d="M322 395L389 426L367 377Z" fill="#3c566c" stroke="#3c566c"></path><path d="M539 386L574 368L508 316Z" fill="#436077" stroke="#436077"></path><path d="M267 373L322 395L315 349Z" fill="#6790b0" stroke="#6790b0"></path><path d="M315 349L322 395L367 377Z" fill="#6790b0" stroke="#6790b0"></path><path d="M451 465L445 384L415 398Z" fill="#51738d" stroke="#51738d"></path><path d="M539 386L591 384L574 368Z" fill="#597c99" stroke="#597c99"></path><path d="M248 292L292 260L216 245Z" fill="#6f9abc" stroke="#6f9abc"></path><path d="M292 260L259 293L309 342Z" fill="#6086a4" stroke="#6086a4"></path><path d="M309 342L267 373L315 349Z" fill="#2f4556" stroke="#2f4556"></path><path d="M620 223L595 175L562 198Z" fill="#6790b0" stroke="#6790b0"></path><path d="M365 481L409 447L389 426Z" fill="#436077" stroke="#436077"></path><path d="M389 426L409 447L415 398Z" fill="#51738d" stroke="#51738d"></path><path d="M626 250L595 252L578 288Z" fill="#6086a4" stroke="#6086a4"></path><path d="M595 252L620 223L562 198Z" fill="#354d61" stroke="#354d61"></path><path d="M595 175L565 125L553 142Z" fill="#6086a4" stroke="#6086a4"></path><path d="M533 76L488 69L459 109Z" fill="#6f9abc" stroke="#6f9abc"></path><path d="M216 245L292 260L299 216Z" fill="#597c99" stroke="#597c99"></path><path d="M240 341L267 373L309 342Z" fill="#6f9abc" stroke="#6f9abc"></path><path d="M658 295L626 250L578 288Z" fill="#3c566c" stroke="#3c566c"></path><path d="M591 384L616 334L574 368Z" fill="#6f9abc" stroke="#6f9abc"></path><path d="M574 368L616 334L578 288Z" fill="#6790b0" stroke="#6790b0"></path><path d="M570 443L591 384L539 386Z" fill="#436077" stroke="#436077"></path><path d="M451 465L460 384L445 384Z" fill="#6f9abc" stroke="#6f9abc"></path><path d="M512 424L527 446L539 386Z" fill="#597c99" stroke="#597c99"></path><path d="M240 341L309 342L259 293Z" fill="#3c566c" stroke="#3c566c"></path><path d="M322 395L314 432L389 426Z" fill="#2f4556" stroke="#2f4556"></path><path d="M533 76L459 109L553 142Z" fill="#51738d" stroke="#51738d"></path><path d="M452 100L413 46L385 103Z" fill="#51738d" stroke="#51738d"></path><path d="M409 447L451 465L415 398Z" fill="#6086a4" stroke="#6086a4"></path><path d="M530 465L527 446L492 454Z" fill="#283c4c" stroke="#283c4c"></path><path d="M492 454L527 446L512 424Z" fill="#354d61" stroke="#354d61"></path><path d="M385 103L308 103L331 138Z" fill="#6f9abc" stroke="#6f9abc"></path><path d="M331 138L308 103L311 151Z" fill="#283c4c" stroke="#283c4c"></path><path d="M311 151L260 117L305 163Z" fill="#436077" stroke="#436077"></path><path d="M210 184L216 245L299 216Z" fill="#4a6982" stroke="#4a6982"></path><path d="M307 52L308 103L338 33Z" fill="#6790b0" stroke="#6790b0"></path><path d="M267 373L314 432L322 395Z" fill="#4a6982" stroke="#4a6982"></path><path d="M409 447L450 474L451 465Z" fill="#51738d" stroke="#51738d"></path><path d="M650 352L636 328L616 334Z" fill="#597c99" stroke="#597c99"></path><path d="M616 334L636 328L578 288Z" fill="#354d61" stroke="#354d61"></path><path d="M248 292L240 341L259 293Z" fill="#6f9abc" stroke="#6f9abc"></path><path d="M267 373L228 394L314 432Z" fill="#354d61" stroke="#354d61"></path><path d="M392 512L450 474L409 447Z" fill="#4a6982" stroke="#4a6982"></path><path d="M451 465L460 492L492 454Z" fill="#283c4c" stroke="#283c4c"></path><path d="M565 125L533 76L553 142Z" fill="#6790b0" stroke="#6790b0"></path><path d="M406 40L413 46L423 0Z" fill="#6086a4" stroke="#6086a4"></path><path d="M455 31L413 46L452 100Z" fill="#283c4c" stroke="#283c4c"></path><path d="M210 184L299 216L305 163Z" fill="#4a6982" stroke="#4a6982"></path><path d="M248 292L219 306L240 341Z" fill="#436077" stroke="#436077"></path><path d="M216 245L219 306L248 292Z" fill="#3c566c" stroke="#3c566c"></path><path d="M460 492L530 465L492 454Z" fill="#6790b0" stroke="#6790b0"></path><path d="M527 446L570 443L539 386Z" fill="#436077" stroke="#436077"></path><path d="M591 384L650 352L616 334Z" fill="#6f9abc" stroke="#6f9abc"></path><path d="M530 465L570 443L527 446Z" fill="#354d61" stroke="#354d61"></path><path d="M650 352L658 295L636 328Z" fill="#3c566c" stroke="#3c566c"></path><path d="M636 328L658 295L578 288Z" fill="#283c4c" stroke="#283c4c"></path><path d="M626 250L673 202L620 223Z" fill="#6f9abc" stroke="#6f9abc"></path><path d="M673 202L628 137L595 175Z" fill="#6790b0" stroke="#6790b0"></path><path d="M455 31L452 100L488 69Z" fill="#3c566c" stroke="#3c566c"></path><path d="M413 46L406 40L385 103Z" fill="#2f4556" stroke="#2f4556"></path><path d="M273 475L345 472L314 432Z" fill="#51738d" stroke="#51738d"></path><path d="M314 432L345 472L389 426Z" fill="#6f9abc" stroke="#6f9abc"></path><path d="M345 472L365 481L389 426Z" fill="#6f9abc" stroke="#6f9abc"></path><path d="M267 62L260 117L308 103Z" fill="#3c566c" stroke="#3c566c"></path><path d="M308 103L260 117L311 151Z" fill="#3c566c" stroke="#3c566c"></path><path d="M392 512L460 492L450 474Z" fill="#2f4556" stroke="#2f4556"></path><path d="M450 474L460 492L451 465Z" fill="#354d61" stroke="#354d61"></path><path d="M595 175L628 137L565 125Z" fill="#597c99" stroke="#597c99"></path><path d="M565 125L604 78L533 76Z" fill="#4a6982" stroke="#4a6982"></path><path d="M673 202L595 175L620 223Z" fill="#6086a4" stroke="#6086a4"></path><path d="M656 408L650 352L591 384Z" fill="#2f4556" stroke="#2f4556"></path><path d="M219 306L221 351L240 341Z" fill="#354d61" stroke="#354d61"></path><path d="M240 341L221 351L267 373Z" fill="#6f9abc" stroke="#6f9abc"></path><path d="M215 361L221 351L145 331Z" fill="#283c4c" stroke="#283c4c"></path><path d="M492 0L455 31L488 69Z" fill="#354d61" stroke="#354d61"></path><path d="M210 164L210 184L305 163Z" fill="#2f4556" stroke="#2f4556"></path><path d="M167 391L215 361L145 331Z" fill="#3c566c" stroke="#3c566c"></path><path d="M183 244L219 306L216 245Z" fill="#354d61" stroke="#354d61"></path><path d="M221 351L215 361L267 373Z" fill="#6086a4" stroke="#6086a4"></path><path d="M683 251L626 250L658 295Z" fill="#436077" stroke="#436077"></path><path d="M683 251L673 202L626 250Z" fill="#436077" stroke="#436077"></path><path d="M215 361L228 394L267 373Z" fill="#597c99" stroke="#597c99"></path><path d="M260 117L210 164L305 163Z" fill="#436077" stroke="#436077"></path><path d="M181 151L192 223L210 184Z" fill="#6790b0" stroke="#6790b0"></path><path d="M210 184L192 223L216 245Z" fill="#6086a4" stroke="#6086a4"></path><path d="M709 289L683 251L658 295Z" fill="#51738d" stroke="#51738d"></path><path d="M338 33L385 103L406 40Z" fill="#51738d" stroke="#51738d"></path><path d="M338 33L308 103L385 103Z" fill="#354d61" stroke="#354d61"></path><path d="M260 117L209 144L210 164Z" fill="#597c99" stroke="#597c99"></path><path d="M632 76L604 78L628 137Z" fill="#4a6982" stroke="#4a6982"></path><path d="M628 137L604 78L565 125Z" fill="#436077" stroke="#436077"></path><path d="M533 76L528 27L488 69Z" fill="#283c4c" stroke="#283c4c"></path><path d="M374 0L338 33L406 40Z" fill="#6086a4" stroke="#6086a4"></path><path d="M644 435L628 427L597 502Z" fill="#2f4556" stroke="#2f4556"></path><path d="M570 443L628 427L591 384Z" fill="#436077" stroke="#436077"></path><path d="M709 314L709 289L658 295Z" fill="#6790b0" stroke="#6790b0"></path><path d="M397 540L392 512L307 540Z" fill="#6f9abc" stroke="#6f9abc"></path><path d="M365 481L392 512L409 447Z" fill="#3c566c" stroke="#3c566c"></path><path d="M402 540L392 512L397 540Z" fill="#2f4556" stroke="#2f4556"></path><path d="M158 231L183 244L192 223Z" fill="#283c4c" stroke="#283c4c"></path><path d="M192 223L183 244L216 245Z" fill="#51738d" stroke="#51738d"></path><path d="M567 41L528 27L533 76Z" fill="#354d61" stroke="#354d61"></path><path d="M455 31L423 0L413 46Z" fill="#354d61" stroke="#354d61"></path><path d="M175 85L209 144L260 117Z" fill="#436077" stroke="#436077"></path><path d="M210 164L181 151L210 184Z" fill="#597c99" stroke="#597c99"></path><path d="M604 78L567 41L533 76Z" fill="#2f4556" stroke="#2f4556"></path><path d="M259 40L267 62L307 52Z" fill="#6f9abc" stroke="#6f9abc"></path><path d="M307 52L267 62L308 103Z" fill="#6086a4" stroke="#6086a4"></path><path d="M628 427L656 408L591 384Z" fill="#283c4c" stroke="#283c4c"></path><path d="M492 0L423 0L455 31Z" fill="#51738d" stroke="#51738d"></path><path d="M228 394L273 475L314 432Z" fill="#2f4556" stroke="#2f4556"></path><path d="M688 161L658 113L628 137Z" fill="#354d61" stroke="#354d61"></path><path d="M604 78L609 53L567 41Z" fill="#6790b0" stroke="#6790b0"></path><path d="M688 161L628 137L673 202Z" fill="#6086a4" stroke="#6086a4"></path><path d="M528 27L492 0L488 69Z" fill="#6086a4" stroke="#6086a4"></path><path d="M500 0L492 0L528 27Z" fill="#6086a4" stroke="#6086a4"></path><path d="M597 502L628 427L570 443Z" fill="#283c4c" stroke="#283c4c"></path><path d="M628 427L644 435L656 408Z" fill="#4a6982" stroke="#4a6982"></path><path d="M597 502L570 443L574 518Z" fill="#2f4556" stroke="#2f4556"></path><path d="M423 0L374 0L406 40Z" fill="#3c566c" stroke="#3c566c"></path><path d="M274 0L259 40L307 52Z" fill="#6086a4" stroke="#6086a4"></path><path d="M602 0L500 0L528 27Z" fill="#6f9abc" stroke="#6f9abc"></path><path d="M655 96L632 76L628 137Z" fill="#4a6982" stroke="#4a6982"></path><path d="M567 41L602 0L528 27Z" fill="#51738d" stroke="#51738d"></path><path d="M716 155L688 161L673 202Z" fill="#6f9abc" stroke="#6f9abc"></path><path d="M632 76L609 53L604 78Z" fill="#4a6982" stroke="#4a6982"></path><path d="M709 314L658 295L650 352Z" fill="#436077" stroke="#436077"></path><path d="M683 251L720 230L673 202Z" fill="#6086a4" stroke="#6086a4"></path><path d="M709 314L733 398L744 331Z" fill="#4a6982" stroke="#4a6982"></path><path d="M658 113L655 96L628 137Z" fill="#354d61" stroke="#354d61"></path><path d="M624 0L602 0L609 53Z" fill="#436077" stroke="#436077"></path><path d="M696 63L655 96L658 113Z" fill="#436077" stroke="#436077"></path><path d="M709 314L650 352L733 398Z" fill="#597c99" stroke="#597c99"></path><path d="M402 540L464 540L460 492Z" fill="#2f4556" stroke="#2f4556"></path><path d="M460 492L529 540L530 465Z" fill="#2f4556" stroke="#2f4556"></path><path d="M402 540L460 492L392 512Z" fill="#6790b0" stroke="#6790b0"></path><path d="M392 512L365 481L307 540Z" fill="#597c99" stroke="#597c99"></path><path d="M175 85L181 151L209 144Z" fill="#283c4c" stroke="#283c4c"></path><path d="M209 144L181 151L210 164Z" fill="#51738d" stroke="#51738d"></path><path d="M307 540L365 481L345 472Z" fill="#51738d" stroke="#51738d"></path><path d="M181 151L158 231L192 223Z" fill="#2f4556" stroke="#2f4556"></path><path d="M145 331L221 351L219 306Z" fill="#4a6982" stroke="#4a6982"></path><path d="M213 472L222 468L228 394Z" fill="#3c566c" stroke="#3c566c"></path><path d="M312 0L307 52L338 33Z" fill="#436077" stroke="#436077"></path><path d="M267 62L175 85L260 117Z" fill="#4a6982" stroke="#4a6982"></path><path d="M762 245L720 230L709 289Z" fill="#51738d" stroke="#51738d"></path><path d="M709 289L720 230L683 251Z" fill="#6790b0" stroke="#6790b0"></path><path d="M574 518L570 443L530 465Z" fill="#6f9abc" stroke="#6f9abc"></path><path d="M529 540L574 518L530 465Z" fill="#51738d" stroke="#51738d"></path><path d="M222 468L281 509L273 475Z" fill="#597c99" stroke="#597c99"></path><path d="M273 475L281 509L345 472Z" fill="#436077" stroke="#436077"></path><path d="M374 0L312 0L338 33Z" fill="#597c99" stroke="#597c99"></path><path d="M464 540L529 540L460 492Z" fill="#6086a4" stroke="#6086a4"></path><path d="M228 394L222 468L273 475Z" fill="#6086a4" stroke="#6086a4"></path><path d="M167 391L228 394L215 361Z" fill="#6f9abc" stroke="#6f9abc"></path><path d="M145 331L219 306L183 244Z" fill="#354d61" stroke="#354d61"></path><path d="M122 319L145 331L183 244Z" fill="#4a6982" stroke="#4a6982"></path><path d="M720 230L716 155L673 202Z" fill="#6086a4" stroke="#6086a4"></path><path d="M688 161L716 142L658 113Z" fill="#6086a4" stroke="#6086a4"></path><path d="M260 540L307 540L281 509Z" fill="#4a6982" stroke="#4a6982"></path><path d="M281 509L307 540L345 472Z" fill="#6086a4" stroke="#6086a4"></path><path d="M167 391L213 472L228 394Z" fill="#6f9abc" stroke="#6f9abc"></path><path d="M222 468L260 540L281 509Z" fill="#4a6982" stroke="#4a6982"></path><path d="M759 124L716 142L716 155Z" fill="#354d61" stroke="#354d61"></path><path d="M716 155L716 142L688 161Z" fill="#597c99" stroke="#597c99"></path><path d="M624 0L609 53L663 0Z" fill="#6790b0" stroke="#6790b0"></path><path d="M312 0L274 0L307 52Z" fill="#6f9abc" stroke="#6f9abc"></path><path d="M259 40L175 85L267 62Z" fill="#3c566c" stroke="#3c566c"></path><path d="M609 53L632 76L663 0Z" fill="#51738d" stroke="#51738d"></path><path d="M609 53L602 0L567 41Z" fill="#6086a4" stroke="#6086a4"></path><path d="M120 202L124 245L158 231Z" fill="#597c99" stroke="#597c99"></path><path d="M158 231L124 245L183 244Z" fill="#2f4556" stroke="#2f4556"></path><path d="M529 540L583 540L574 518Z" fill="#6f9abc" stroke="#6f9abc"></path><path d="M574 518L583 540L597 502Z" fill="#3c566c" stroke="#3c566c"></path><path d="M597 502L663 480L644 435Z" fill="#3c566c" stroke="#3c566c"></path><path d="M636 540L663 480L597 502Z" fill="#283c4c" stroke="#283c4c"></path><path d="M644 435L682 461L656 408Z" fill="#6f9abc" stroke="#6f9abc"></path><path d="M749 333L744 331L754 389Z" fill="#354d61" stroke="#354d61"></path><path d="M709 314L744 331L709 289Z" fill="#436077" stroke="#436077"></path><path d="M720 230L772 161L716 155Z" fill="#2f4556" stroke="#2f4556"></path><path d="M663 480L682 461L644 435Z" fill="#2f4556" stroke="#2f4556"></path><path d="M168 469L205 479L213 472Z" fill="#354d61" stroke="#354d61"></path><path d="M213 472L205 479L222 468Z" fill="#6790b0" stroke="#6790b0"></path><path d="M176 16L175 85L259 40Z" fill="#283c4c" stroke="#283c4c"></path><path d="M181 151L120 202L158 231Z" fill="#6790b0" stroke="#6790b0"></path><path d="M175 85L153 121L181 151Z" fill="#3c566c" stroke="#3c566c"></path><path d="M124 245L122 319L183 244Z" fill="#6f9abc" stroke="#6f9abc"></path><path d="M145 331L119 370L167 391Z" fill="#6f9abc" stroke="#6f9abc"></path><path d="M167 391L168 469L213 472Z" fill="#354d61" stroke="#354d61"></path><path d="M120 202L116 248L124 245Z" fill="#354d61" stroke="#354d61"></path><path d="M124 245L116 248L122 319Z" fill="#51738d" stroke="#51738d"></path><path d="M733 398L650 352L656 408Z" fill="#6f9abc" stroke="#6f9abc"></path><path d="M769 260L762 245L709 289Z" fill="#51738d" stroke="#51738d"></path><path d="M274 0L253 0L259 40Z" fill="#4a6982" stroke="#4a6982"></path><path d="M115 157L120 202L181 151Z" fill="#283c4c" stroke="#283c4c"></path><path d="M696 63L632 76L655 96Z" fill="#4a6982" stroke="#4a6982"></path><path d="M682 461L733 398L656 408Z" fill="#6f9abc" stroke="#6f9abc"></path><path d="M88 280L115 322L122 319Z" fill="#2f4556" stroke="#2f4556"></path><path d="M122 319L115 322L145 331Z" fill="#4a6982" stroke="#4a6982"></path><path d="M769 260L709 289L744 331Z" fill="#354d61" stroke="#354d61"></path><path d="M216 540L260 540L222 468Z" fill="#6f9abc" stroke="#6f9abc"></path><path d="M716 142L696 63L658 113Z" fill="#6f9abc" stroke="#6f9abc"></path><path d="M718 60L696 63L716 142Z" fill="#283c4c" stroke="#283c4c"></path><path d="M749 333L769 260L744 331Z" fill="#6086a4" stroke="#6086a4"></path><path d="M759 124L718 60L716 142Z" fill="#3c566c" stroke="#3c566c"></path><path d="M820 292L769 260L749 333Z" fill="#6f9abc" stroke="#6f9abc"></path><path d="M115 322L119 370L145 331Z" fill="#6f9abc" stroke="#6f9abc"></path><path d="M146 466L168 469L167 391Z" fill="#354d61" stroke="#354d61"></path><path d="M205 479L216 540L222 468Z" fill="#6790b0" stroke="#6790b0"></path><path d="M125 74L115 157L153 121Z" fill="#597c99" stroke="#597c99"></path><path d="M153 121L115 157L181 151Z" fill="#3c566c" stroke="#3c566c"></path><path d="M61 230L88 280L116 248Z" fill="#2f4556" stroke="#2f4556"></path><path d="M116 248L88 280L122 319Z" fill="#3c566c" stroke="#3c566c"></path><path d="M119 370L122 391L167 391Z" fill="#597c99" stroke="#597c99"></path><path d="M734 512L736 451L682 461Z" fill="#436077" stroke="#436077"></path><path d="M776 435L754 389L733 398Z" fill="#436077" stroke="#436077"></path><path d="M583 540L636 540L597 502Z" fill="#3c566c" stroke="#3c566c"></path><path d="M736 451L733 398L682 461Z" fill="#2f4556" stroke="#2f4556"></path><path d="M733 398L754 389L744 331Z" fill="#6790b0" stroke="#6790b0"></path><path d="M146 466L172 488L168 469Z" fill="#597c99" stroke="#597c99"></path><path d="M168 469L172 488L205 479Z" fill="#2f4556" stroke="#2f4556"></path><path d="M772 161L720 230L790 200Z" fill="#3c566c" stroke="#3c566c"></path><path d="M696 63L663 0L632 76Z" fill="#3c566c" stroke="#3c566c"></path><path d="M691 0L663 0L696 63Z" fill="#2f4556" stroke="#2f4556"></path><path d="M61 230L116 248L120 202Z" fill="#6790b0" stroke="#6790b0"></path><path d="M47 333L66 396L119 370Z" fill="#6790b0" stroke="#6790b0"></path><path d="M119 370L66 396L122 391Z" fill="#597c99" stroke="#597c99"></path><path d="M790 200L720 230L762 245Z" fill="#283c4c" stroke="#283c4c"></path><path d="M253 0L203 0L259 40Z" fill="#4a6982" stroke="#4a6982"></path><path d="M175 85L142 70L153 121Z" fill="#51738d" stroke="#51738d"></path><path d="M772 161L759 124L716 155Z" fill="#597c99" stroke="#597c99"></path><path d="M160 29L142 70L175 85Z" fill="#4a6982" stroke="#4a6982"></path><path d="M172 488L216 540L205 479Z" fill="#436077" stroke="#436077"></path><path d="M122 391L146 466L167 391Z" fill="#51738d" stroke="#51738d"></path><path d="M172 488L126 540L216 540Z" fill="#597c99" stroke="#597c99"></path><path d="M734 512L682 461L663 480Z" fill="#6790b0" stroke="#6790b0"></path><path d="M203 0L176 16L259 40Z" fill="#436077" stroke="#436077"></path><path d="M636 540L666 540L663 480Z" fill="#3c566c" stroke="#3c566c"></path><path d="M769 260L790 200L762 245Z" fill="#51738d" stroke="#51738d"></path><path d="M809 137L769 102L759 124Z" fill="#6086a4" stroke="#6086a4"></path><path d="M839 206L790 200L769 260Z" fill="#2f4556" stroke="#2f4556"></path><path d="M176 16L160 29L175 85Z" fill="#597c99" stroke="#597c99"></path><path d="M160 29L125 74L142 70Z" fill="#597c99" stroke="#597c99"></path><path d="M142 70L125 74L153 121Z" fill="#436077" stroke="#436077"></path><path d="M115 157L79 171L120 202Z" fill="#6086a4" stroke="#6086a4"></path><path d="M720 20L696 63L718 60Z" fill="#354d61" stroke="#354d61"></path><path d="M720 20L691 0L696 63Z" fill="#51738d" stroke="#51738d"></path><path d="M776 435L784 380L754 389Z" fill="#6f9abc" stroke="#6f9abc"></path><path d="M754 389L784 380L749 333Z" fill="#6790b0" stroke="#6790b0"></path><path d="M63 124L79 171L115 157Z" fill="#436077" stroke="#436077"></path><path d="M809 137L759 124L772 161Z" fill="#6790b0" stroke="#6790b0"></path><path d="M759 124L769 102L718 60Z" fill="#283c4c" stroke="#283c4c"></path><path d="M753 38L720 20L718 60Z" fill="#6086a4" stroke="#6086a4"></path><path d="M79 171L61 230L120 202Z" fill="#3c566c" stroke="#3c566c"></path><path d="M47 333L119 370L115 322Z" fill="#436077" stroke="#436077"></path><path d="M122 391L70 439L146 466Z" fill="#51738d" stroke="#51738d"></path><path d="M784 380L805 339L749 333Z" fill="#6790b0" stroke="#6790b0"></path><path d="M736 451L776 435L733 398Z" fill="#6f9abc" stroke="#6f9abc"></path><path d="M784 380L828 381L805 339Z" fill="#51738d" stroke="#51738d"></path><path d="M793 515L776 435L736 451Z" fill="#436077" stroke="#436077"></path><path d="M885 333L820 292L805 339Z" fill="#4a6982" stroke="#4a6982"></path><path d="M805 339L820 292L749 333Z" fill="#6086a4" stroke="#6086a4"></path><path d="M790 200L815 169L772 161Z" fill="#6086a4" stroke="#6086a4"></path><path d="M666 540L734 512L663 480Z" fill="#597c99" stroke="#597c99"></path><path d="M769 102L753 38L718 60Z" fill="#283c4c" stroke="#283c4c"></path><path d="M720 20L739 0L691 0Z" fill="#6f9abc" stroke="#6f9abc"></path><path d="M786 82L753 38L769 102Z" fill="#2f4556" stroke="#2f4556"></path><path d="M839 206L815 169L790 200Z" fill="#6086a4" stroke="#6086a4"></path><path d="M47 333L115 322L88 280Z" fill="#2f4556" stroke="#2f4556"></path><path d="M146 466L126 540L172 488Z" fill="#597c99" stroke="#597c99"></path><path d="M815 169L809 137L772 161Z" fill="#6086a4" stroke="#6086a4"></path><path d="M809 137L786 82L769 102Z" fill="#51738d" stroke="#51738d"></path><path d="M20 267L47 333L88 280Z" fill="#4a6982" stroke="#4a6982"></path><path d="M69 63L63 124L125 74Z" fill="#283c4c" stroke="#283c4c"></path><path d="M125 74L63 124L115 157Z" fill="#597c99" stroke="#597c99"></path><path d="M79 171L33 207L61 230Z" fill="#6790b0" stroke="#6790b0"></path><path d="M0 297L37 336L47 333Z" fill="#354d61" stroke="#354d61"></path><path d="M176 16L137 0L160 29Z" fill="#436077" stroke="#436077"></path><path d="M160 29L137 0L125 74Z" fill="#354d61" stroke="#354d61"></path><path d="M203 0L137 0L176 16Z" fill="#51738d" stroke="#51738d"></path><path d="M830 0L739 0L753 38Z" fill="#283c4c" stroke="#283c4c"></path><path d="M753 38L739 0L720 20Z" fill="#6f9abc" stroke="#6f9abc"></path><path d="M20 267L88 280L61 230Z" fill="#6790b0" stroke="#6790b0"></path><path d="M47 333L37 336L66 396Z" fill="#436077" stroke="#436077"></path><path d="M21 394L70 439L66 396Z" fill="#283c4c" stroke="#283c4c"></path><path d="M66 396L70 439L122 391Z" fill="#2f4556" stroke="#2f4556"></path><path d="M63 124L33 207L79 171Z" fill="#6790b0" stroke="#6790b0"></path><path d="M809 137L851 107L786 82Z" fill="#2f4556" stroke="#2f4556"></path><path d="M815 169L850 152L809 137Z" fill="#597c99" stroke="#597c99"></path><path d="M820 292L839 206L769 260Z" fill="#6f9abc" stroke="#6f9abc"></path><path d="M825 420L784 380L776 435Z" fill="#436077" stroke="#436077"></path><path d="M825 420L828 381L784 380Z" fill="#6790b0" stroke="#6790b0"></path><path d="M820 292L892 277L839 206Z" fill="#3c566c" stroke="#3c566c"></path><path d="M666 540L738 540L734 512Z" fill="#6790b0" stroke="#6790b0"></path><path d="M847 461L825 420L845 467Z" fill="#4a6982" stroke="#4a6982"></path><path d="M73 474L97 495L146 466Z" fill="#6790b0" stroke="#6790b0"></path><path d="M97 495L126 540L146 466Z" fill="#597c99" stroke="#597c99"></path><path d="M33 207L20 267L61 230Z" fill="#6086a4" stroke="#6086a4"></path><path d="M83 35L69 63L125 74Z" fill="#51738d" stroke="#51738d"></path><path d="M0 198L0 218L33 207Z" fill="#597c99" stroke="#597c99"></path><path d="M843 411L840 372L828 381Z" fill="#3c566c" stroke="#3c566c"></path><path d="M828 381L840 372L805 339Z" fill="#6f9abc" stroke="#6f9abc"></path><path d="M793 515L736 451L734 512Z" fill="#6790b0" stroke="#6790b0"></path><path d="M70 439L73 474L146 466Z" fill="#283c4c" stroke="#283c4c"></path><path d="M97 495L91 540L126 540Z" fill="#4a6982" stroke="#4a6982"></path><path d="M40 495L73 474L70 439Z" fill="#354d61" stroke="#354d61"></path><path d="M137 0L83 35L125 74Z" fill="#436077" stroke="#436077"></path><path d="M889 202L850 152L839 206Z" fill="#6f9abc" stroke="#6f9abc"></path><path d="M839 206L850 152L815 169Z" fill="#2f4556" stroke="#2f4556"></path><path d="M786 82L836 39L753 38Z" fill="#597c99" stroke="#597c99"></path><path d="M825 420L843 411L828 381Z" fill="#4a6982" stroke="#4a6982"></path><path d="M840 372L885 333L805 339Z" fill="#283c4c" stroke="#283c4c"></path><path d="M847 461L843 411L825 420Z" fill="#354d61" stroke="#354d61"></path><path d="M850 152L850 135L809 137Z" fill="#6086a4" stroke="#6086a4"></path><path d="M37 336L21 394L66 396Z" fill="#3c566c" stroke="#3c566c"></path><path d="M0 336L21 394L37 336Z" fill="#354d61" stroke="#354d61"></path><path d="M738 540L773 540L734 512Z" fill="#597c99" stroke="#597c99"></path><path d="M773 540L793 515L734 512Z" fill="#2f4556" stroke="#2f4556"></path><path d="M0 218L0 293L20 267Z" fill="#6790b0" stroke="#6790b0"></path><path d="M20 267L0 297L47 333Z" fill="#51738d" stroke="#51738d"></path><path d="M0 218L20 267L33 207Z" fill="#6086a4" stroke="#6086a4"></path><path d="M0 293L0 297L20 267Z" fill="#51738d" stroke="#51738d"></path><path d="M0 198L33 207L0 127Z" fill="#597c99" stroke="#597c99"></path><path d="M0 127L33 207L63 124Z" fill="#6790b0" stroke="#6790b0"></path><path d="M21 86L63 124L69 63Z" fill="#6790b0" stroke="#6790b0"></path><path d="M0 297L0 336L37 336Z" fill="#6f9abc" stroke="#6f9abc"></path><path d="M73 540L97 495L40 495Z" fill="#354d61" stroke="#354d61"></path><path d="M73 540L91 540L97 495Z" fill="#6086a4" stroke="#6086a4"></path><path d="M906 141L851 107L850 135Z" fill="#597c99" stroke="#597c99"></path><path d="M850 135L851 107L809 137Z" fill="#6790b0" stroke="#6790b0"></path><path d="M137 0L77 0L83 35Z" fill="#6790b0" stroke="#6790b0"></path><path d="M83 35L0 0L69 63Z" fill="#6f9abc" stroke="#6f9abc"></path><path d="M77 0L75 0L83 35Z" fill="#283c4c" stroke="#283c4c"></path><path d="M0 73L21 86L69 63Z" fill="#354d61" stroke="#354d61"></path><path d="M873 404L840 372L843 411Z" fill="#4a6982" stroke="#4a6982"></path><path d="M873 404L885 333L840 372Z" fill="#4a6982" stroke="#4a6982"></path><path d="M850 152L906 141L850 135Z" fill="#6086a4" stroke="#6086a4"></path><path d="M845 467L825 420L776 435Z" fill="#51738d" stroke="#51738d"></path><path d="M845 467L776 435L793 515Z" fill="#6f9abc" stroke="#6f9abc"></path><path d="M885 333L892 277L820 292Z" fill="#51738d" stroke="#51738d"></path><path d="M0 452L70 439L21 394Z" fill="#283c4c" stroke="#283c4c"></path><path d="M40 495L97 495L73 474Z" fill="#597c99" stroke="#597c99"></path><path d="M842 513L845 467L793 515Z" fill="#436077" stroke="#436077"></path><path d="M21 86L0 127L63 124Z" fill="#283c4c" stroke="#283c4c"></path><path d="M895 207L889 202L839 206Z" fill="#6790b0" stroke="#6790b0"></path><path d="M0 336L0 402L21 394Z" fill="#6086a4" stroke="#6086a4"></path><path d="M0 452L40 495L70 439Z" fill="#6086a4" stroke="#6086a4"></path><path d="M851 107L836 39L786 82Z" fill="#6f9abc" stroke="#6f9abc"></path><path d="M874 58L836 39L851 107Z" fill="#283c4c" stroke="#283c4c"></path><path d="M903 431L873 404L847 461Z" fill="#4a6982" stroke="#4a6982"></path><path d="M847 461L873 404L843 411Z" fill="#51738d" stroke="#51738d"></path><path d="M892 277L895 207L839 206Z" fill="#6f9abc" stroke="#6f9abc"></path><path d="M890 65L874 58L851 107Z" fill="#3c566c" stroke="#3c566c"></path><path d="M0 73L0 107L21 86Z" fill="#283c4c" stroke="#283c4c"></path><path d="M21 86L0 107L0 127Z" fill="#51738d" stroke="#51738d"></path><path d="M852 0L830 0L836 39Z" fill="#6790b0" stroke="#6790b0"></path><path d="M836 39L830 0L753 38Z" fill="#6f9abc" stroke="#6f9abc"></path><path d="M892 277L960 252L895 207Z" fill="#6790b0" stroke="#6790b0"></path><path d="M885 333L907 323L892 277Z" fill="#436077" stroke="#436077"></path><path d="M939 378L907 323L885 333Z" fill="#6790b0" stroke="#6790b0"></path><path d="M0 402L0 452L21 394Z" fill="#6f9abc" stroke="#6f9abc"></path><path d="M40 495L0 540L73 540Z" fill="#2f4556" stroke="#2f4556"></path><path d="M0 0L0 73L69 63Z" fill="#3c566c" stroke="#3c566c"></path><path d="M831 540L842 513L793 515Z" fill="#51738d" stroke="#51738d"></path><path d="M896 471L903 431L847 461Z" fill="#4a6982" stroke="#4a6982"></path><path d="M873 404L939 378L885 333Z" fill="#3c566c" stroke="#3c566c"></path><path d="M0 452L0 468L40 495Z" fill="#354d61" stroke="#354d61"></path><path d="M773 540L831 540L793 515Z" fill="#2f4556" stroke="#2f4556"></path><path d="M906 141L850 152L889 202Z" fill="#436077" stroke="#436077"></path><path d="M895 207L906 141L889 202Z" fill="#3c566c" stroke="#3c566c"></path><path d="M960 160L906 141L895 207Z" fill="#6f9abc" stroke="#6f9abc"></path><path d="M874 58L852 0L836 39Z" fill="#4a6982" stroke="#4a6982"></path><path d="M883 0L852 0L874 58Z" fill="#3c566c" stroke="#3c566c"></path><path d="M831 540L847 540L842 513Z" fill="#283c4c" stroke="#283c4c"></path><path d="M896 471L847 461L845 467Z" fill="#4a6982" stroke="#4a6982"></path><path d="M906 141L890 65L851 107Z" fill="#436077" stroke="#436077"></path><path d="M896 471L845 467L842 513Z" fill="#3c566c" stroke="#3c566c"></path><path d="M960 316L934 288L907 323Z" fill="#436077" stroke="#436077"></path><path d="M907 323L934 288L892 277Z" fill="#2f4556" stroke="#2f4556"></path><path d="M922 540L896 471L842 513Z" fill="#51738d" stroke="#51738d"></path><path d="M903 431L939 378L873 404Z" fill="#4a6982" stroke="#4a6982"></path><path d="M75 0L0 0L83 35Z" fill="#436077" stroke="#436077"></path><path d="M960 382L939 378L960 432Z" fill="#354d61" stroke="#354d61"></path><path d="M0 468L0 540L40 495Z" fill="#6790b0" stroke="#6790b0"></path><path d="M960 432L916 454L960 468Z" fill="#6790b0" stroke="#6790b0"></path><path d="M896 471L916 454L903 431Z" fill="#3c566c" stroke="#3c566c"></path><path d="M913 42L883 0L874 58Z" fill="#2f4556" stroke="#2f4556"></path><path d="M913 42L874 58L890 65Z" fill="#51738d" stroke="#51738d"></path><path d="M913 42L890 65L960 101Z" fill="#6790b0" stroke="#6790b0"></path><path d="M960 316L960 252L934 288Z" fill="#436077" stroke="#436077"></path><path d="M934 288L960 252L892 277Z" fill="#436077" stroke="#436077"></path><path d="M960 252L960 219L895 207Z" fill="#51738d" stroke="#51738d"></path><path d="M960 101L890 65L906 141Z" fill="#4a6982" stroke="#4a6982"></path><path d="M960 382L960 316L939 378Z" fill="#51738d" stroke="#51738d"></path><path d="M939 378L960 316L907 323Z" fill="#6f9abc" stroke="#6f9abc"></path><path d="M960 219L960 160L895 207Z" fill="#3c566c" stroke="#3c566c"></path><path d="M960 432L939 378L903 431Z" fill="#436077" stroke="#436077"></path><path d="M960 160L960 135L906 141Z" fill="#3c566c" stroke="#3c566c"></path><path d="M960 135L960 101L906 141Z" fill="#3c566c" stroke="#3c566c"></path><path d="M913 42L960 0L883 0Z" fill="#283c4c" stroke="#283c4c"></path><path d="M960 468L916 454L960 500Z" fill="#4a6982" stroke="#4a6982"></path><path d="M916 454L960 432L903 431Z" fill="#6f9abc" stroke="#6f9abc"></path><path d="M847 540L922 540L842 513Z" fill="#354d61" stroke="#354d61"></path><path d="M960 500L916 454L896 471Z" fill="#597c99" stroke="#597c99"></path><path d="M960 101L960 31L913 42Z" fill="#2f4556" stroke="#2f4556"></path><path d="M922 540L960 500L896 471Z" fill="#2f4556" stroke="#2f4556"></path><path d="M960 31L960 0L913 42Z" fill="#597c99" stroke="#597c99"></path><path d="M922 540L960 540L960 500Z" fill="#2f4556" stroke="#2f4556"></path></g></svg>